<svg xmlns="http://www.w3.org/2000/svg" viewBox="0 0 8 8" width="2000" height="2000">
  <g>
    <rect x="0" y="0" width="8" height="8" fill="#FAFAFA"/>
  </g>
  <g>
    <line x1="0" y1="0" x2="8" y2="0" stroke="#F1F115" stroke-width="0.5"/>
    <line x1="0" y1="1" x2="8" y2="1" stroke="#F1F115" stroke-width="0.5"/>
    <line x1="0" y1="2" x2="8" y2="2" stroke="#F1F115" stroke-width="0.5"/>
    <line x1="0" y1="3" x2="8" y2="3" stroke="#F1F115" stroke-width="0.5"/>
    <line x1="0" y1="4" x2="8" y2="4" stroke="#F1F115" stroke-width="0.5"/>
    <line x1="0" y1="5" x2="8" y2="5" stroke="#F1F115" stroke-width="0.5"/>
    <line x1="0" y1="6" x2="8" y2="6" stroke="#F1F115" stroke-width="0.5"/>
    <line x1="0" y1="7" x2="8" y2="7" stroke="#F1F115" stroke-width="0.5"/>
    <line x1="0" y1="8" x2="8" y2="8" stroke="#F1F115" stroke-width="0.5"/>
  </g>
  <g>
    <line x1="0" y1="0" x2="0" y2="8" stroke="#F1F115" stroke-width="0.5"/>
    <line x1="1" y1="0" x2="1" y2="8" stroke="#F1F115" stroke-width="0.5"/>
    <line x1="2" y1="0" x2="2" y2="8" stroke="#F1F115" stroke-width="0.5"/>
    <line x1="3" y1="0" x2="3" y2="8" stroke="#F1F115" stroke-width="0.5"/>
    <line x1="4" y1="0" x2="4" y2="8" stroke="#F1F115" stroke-width="0.5"/>
    <line x1="5" y1="0" x2="5" y2="8" stroke="#F1F115" stroke-width="0.5"/>
    <line x1="6" y1="0" x2="6" y2="8" stroke="#F1F115" stroke-width="0.5"/>
    <line x1="7" y1="0" x2="7" y2="8" stroke="#F1F115" stroke-width="0.5"/>
    <line x1="8" y1="0" x2="8" y2="8" stroke="#F1F115" stroke-width="0.5"/>
  </g>
  <g>
    <line x1="0" y1="0" x2="8" y2="0" stroke="#C7C7C7" stroke-width="0.1"/>
    <line x1="0" y1="1" x2="8" y2="1" stroke="#C7C7C7" stroke-width="0.1"/>
    <line x1="0" y1="2" x2="8" y2="2" stroke="#C7C7C7" stroke-width="0.1"/>
    <line x1="0" y1="3" x2="8" y2="3" stroke="#C7C7C7" stroke-width="0.1"/>
    <line x1="0" y1="4" x2="8" y2="4" stroke="#C7C7C7" stroke-width="0.1"/>
    <line x1="0" y1="5" x2="8" y2="5" stroke="#C7C7C7" stroke-width="0.1"/>
    <line x1="0" y1="6" x2="8" y2="6" stroke="#C7C7C7" stroke-width="0.1"/>
    <line x1="0" y1="7" x2="8" y2="7" stroke="#C7C7C7" stroke-width="0.1"/>
    <line x1="0" y1="8" x2="8" y2="8" stroke="#C7C7C7" stroke-width="0.1"/>
  </g>
  <g>
    <line x1="0" y1="0" x2="0" y2="8" stroke="#C7C7C7" stroke-width="0.1"/>
    <line x1="1" y1="0" x2="1" y2="8" stroke="#C7C7C7" stroke-width="0.1"/>
    <line x1="2" y1="0" x2="2" y2="8" stroke="#C7C7C7" stroke-width="0.1"/>
    <line x1="3" y1="0" x2="3" y2="8" stroke="#C7C7C7" stroke-width="0.1"/>
    <line x1="4" y1="0" x2="4" y2="8" stroke="#C7C7C7" stroke-width="0.1"/>
    <line x1="5" y1="0" x2="5" y2="8" stroke="#C7C7C7" stroke-width="0.1"/>
    <line x1="6" y1="0" x2="6" y2="8" stroke="#C7C7C7" stroke-width="0.1"/>
    <line x1="7" y1="0" x2="7" y2="8" stroke="#C7C7C7" stroke-width="0.1"/>
    <line x1="8" y1="0" x2="8" y2="8" stroke="#C7C7C7" stroke-width="0.1"/>
  </g>
</svg>